<svg width="24" height="24" viewBox="0 0 24 24" fill="none" xmlns="http://www.w3.org/2000/svg">
<path fill-rule="evenodd" clip-rule="evenodd" d="M18.633 2C20.3872 2 21.6265 3.02988 21.9484 4.75488L23.6154 12.6611C23.627 12.7176 23.6328 12.7754 23.633 12.833V18.667C23.6329 19.5509 23.2815 20.3984 22.6564 21.0234C22.0314 21.6484 21.184 22 20.3 22H3.633C2.80447 21.9999 2.00802 21.6911 1.39667 21.1377L1.27655 21.0234C0.651516 20.3984 0.300078 19.5509 0.299991 18.667V12.833C0.299914 12.8043 0.301134 12.7756 0.303897 12.7471L0.316593 12.6611L1.98261 4.75098C2.14984 3.88765 2.52958 3.20727 3.10761 2.72559C3.61346 2.3042 4.24314 2.06501 4.9787 2.01172L5.29999 2H18.633ZM1.96698 18.667C1.96707 19.1089 2.14276 19.5322 2.45526 19.8447C2.76776 20.1572 3.1911 20.3329 3.633 20.333H20.3C20.742 20.333 21.1662 20.1573 21.4787 19.8447C21.791 19.5322 21.9669 19.1087 21.967 18.667V13.6104C21.8197 13.6468 21.6682 13.667 21.5158 13.667H16.0471C15.8837 14.458 15.492 15.1917 14.9123 15.7715C14.131 16.5526 13.0717 16.9921 11.967 16.9922C10.8621 16.9922 9.80208 16.5527 9.02069 15.7715C8.44082 15.1916 8.0492 14.4582 7.88593 13.667H2.41718C2.26512 13.667 2.11412 13.6458 1.96698 13.6094V18.667ZM5.12128 3.67285C4.26942 3.72557 3.78883 4.17401 3.61542 5.07324V5.08789L2.21308 11.749C2.2068 11.7792 2.20779 11.8109 2.21503 11.8408C2.22237 11.8709 2.23656 11.8999 2.25605 11.9238C2.27542 11.9474 2.29979 11.9664 2.32733 11.9795C2.3413 11.9861 2.3563 11.9917 2.37128 11.9951L2.41718 12H8.633L8.71503 12.0029C8.79579 12.0105 8.87499 12.0308 8.95038 12.0615C9.05116 12.1027 9.14349 12.1636 9.22089 12.2402C9.29815 12.3168 9.36038 12.4075 9.40253 12.5078C9.44465 12.6082 9.46646 12.7163 9.46698 12.8252L9.4787 13.0713C9.53546 13.6437 9.78908 14.1825 10.1994 14.5928C10.6095 15.0027 11.147 15.2556 11.7189 15.3125L11.967 15.3252C12.547 15.3251 13.1062 15.1232 13.551 14.7588L13.7346 14.5928C14.1448 14.1825 14.3975 13.6436 14.4543 13.0713L14.467 12.8252C14.4684 12.6056 14.5569 12.3957 14.7131 12.2412C14.8693 12.0868 15.0803 11.9998 15.3 12.001H21.5158C21.5312 12.001 21.5468 11.9994 21.5617 11.9961L21.6057 11.9814C21.6335 11.9682 21.6585 11.9477 21.6779 11.9238C21.6973 11.8999 21.7107 11.8717 21.718 11.8418C21.7253 11.8118 21.7262 11.7802 21.7199 11.75L20.3176 5.08887C20.3165 5.08247 20.3138 5.07574 20.3137 5.06934C20.1476 4.17306 19.6677 3.72526 18.8098 3.67285L18.633 3.66699H5.29706L5.12128 3.67285ZM18.633 8.66699C18.854 8.66699 19.0665 8.75483 19.2228 8.91113C19.3789 9.0674 19.467 9.27912 19.467 9.5L19.4621 9.58203C19.4432 9.77269 19.3594 9.95215 19.2228 10.0889C19.086 10.2257 18.9059 10.3102 18.715 10.3291L18.633 10.333H5.29999L5.21796 10.3291C5.05438 10.3129 4.89884 10.2487 4.77167 10.1445L4.71112 10.0889C4.57437 9.95211 4.4898 9.77284 4.47089 9.58203L4.46698 9.5C4.46699 9.30657 4.53396 9.11998 4.65546 8.97168L4.71112 8.91113C4.86742 8.75484 5.07901 8.66699 5.29999 8.66699H18.633ZM17.8 5.33301C18.0209 5.33301 18.2326 5.42106 18.3889 5.57715C18.5451 5.73345 18.633 5.94595 18.633 6.16699L18.6291 6.24902C18.6102 6.43978 18.5256 6.61914 18.3889 6.75586C18.2521 6.89257 18.0728 6.97719 17.882 6.99609L17.8 7H6.133L6.05097 6.99609C5.88744 6.97986 5.73181 6.9157 5.60468 6.81152L5.54413 6.75586C5.40741 6.61913 5.32283 6.43979 5.3039 6.24902L5.29999 6.16699C5.29999 5.97366 5.36708 5.78694 5.48847 5.63867L5.54413 5.57715C5.70034 5.42103 5.91221 5.33309 6.133 5.33301H17.8Z" fill="#505C6B"/>
</svg>
