<svg width="15" height="15" viewBox="0 0 15 15" fill="none" xmlns="http://www.w3.org/2000/svg">
<path d="M2.69396 1.25013C2.70685 1.2469 2.71974 1.24422 2.7321 1.24153C3.21334 1.14109 3.57912 1.12498 3.85196 1.12498C4.30205 1.13787 4.80533 1.47302 5.02499 1.87908C5.15605 2.13205 5.47187 2.83943 5.66522 3.31265C5.85966 3.78477 6.13357 4.51899 6.2179 4.79833C6.34788 5.25165 6.21575 5.88866 5.88167 6.25926C5.67435 6.47786 5.55296 6.59011 5.11145 6.90057C5.10931 6.90272 5.10608 6.9038 5.10393 6.90594C4.71722 7.16913 4.60657 7.7159 4.87512 8.19016C5.50837 9.34709 6.15344 9.99168 7.30982 10.6249C7.78355 10.8934 8.33033 10.7828 8.59404 10.396C8.59565 10.3934 8.59726 10.3907 8.59941 10.3885C8.90986 9.94703 9.02265 9.82563 9.24072 9.61831C9.61132 9.28369 10.2483 9.15157 10.7017 9.28209C10.9809 9.36695 11.7152 9.64088 12.1873 9.83476C12.6611 10.0281 13.3679 10.3439 13.6209 10.475C14.0269 10.6952 14.3621 11.1979 14.375 11.648C14.375 11.9214 14.3589 12.2866 14.259 12.7673C14.2558 12.7802 14.2531 12.7931 14.2504 12.8055C14.0517 13.8851 12.9205 14.753 10.8913 14.8643C8.91418 14.9679 6.13683 14.3486 3.64782 11.8528C1.15138 9.36333 0.532083 6.58639 0.635758 4.60929C0.746938 2.57952 1.61435 1.44895 2.69396 1.25013Z" fill="#12275E"/>
</svg>
