<svg width="15" height="15" viewBox="0 0 15 15" fill="none" xmlns="http://www.w3.org/2000/svg">
<g clip-path="url(#clip0_17397_4645)">
<path d="M7.41406 0.313477C6.53641 1.23591 5.99714 2.48368 5.99707 3.85742C5.99728 6.69742 8.29959 8.99985 11.1396 9C12.5159 9 13.7645 8.45761 14.6875 7.57715C14.7042 9.24958 14.1563 10.8689 13.125 12.1855L14.4727 13.8984C14.6359 14.1024 14.6557 14.3877 14.5537 14.6123C14.4309 14.8567 14.2068 15 13.9414 15H7.51172C5.53198 15 3.57142 14.1844 2.14258 12.7568C0.754611 11.35 0.000102918 9.53377 0 7.61719C3.16411e-06 5.6183 0.81607 3.74161 2.26562 2.35449C3.6624 1.01795 5.47541 0.308641 7.41406 0.313477ZM11.2188 0C13.3261 0.000249925 15.0332 1.70806 15.0332 3.81543C15.0331 5.92274 13.3261 7.62963 11.2188 7.62988C9.11123 7.62988 7.40339 5.9229 7.40332 3.81543C7.40332 1.7079 9.11119 0 11.2188 0ZM11.2188 1.76465C10.9061 1.76465 10.6533 2.01748 10.6533 2.33008V3.25098H9.73242C9.41989 3.25106 9.16797 3.50288 9.16797 3.81543C9.16804 4.12792 9.41993 4.3798 9.73242 4.37988H10.6533V5.30078C10.6533 5.61338 10.9061 5.86523 11.2188 5.86523C11.5311 5.86499 11.7832 5.61323 11.7832 5.30078V4.37988H12.7041C13.0133 4.37983 13.2685 4.12794 13.2686 3.81543C13.2686 3.50286 13.0167 3.25103 12.7041 3.25098H11.7832V2.33008C11.7832 2.01763 11.5311 1.7649 11.2188 1.76465Z" fill="#12275E"/>
</g>
<defs>
<clipPath id="clip0_17397_4645">
<rect width="15" height="15" fill="white"/>
</clipPath>
</defs>
</svg>
