<svg width="15" height="15" viewBox="0 0 15 15" fill="none" xmlns="http://www.w3.org/2000/svg">
<g clip-path="url(#clip0_17523_484)">
<path d="M11.5625 3.75C11.5625 5.82129 9.88379 7.5 7.78613 7.5C5.74121 7.5 4.03613 5.82129 4.03613 3.75C4.03613 1.679 5.74121 0 7.78613 0C9.88379 0 11.5625 1.679 11.5625 3.75ZM9.66113 10.6055C8.87891 10.8135 8.25488 11.5488 8.25488 12.4219V13.125C8.25488 13.248 8.33105 13.3682 8.41895 13.4561L8.8877 13.9248C9.06934 14.1094 9.36816 14.1094 9.5498 13.9248C9.73438 13.7432 9.73438 13.4443 9.5498 13.2627L9.19238 12.9316V12.4219C9.19238 11.9033 9.6377 11.4844 10.1299 11.4844C10.6748 11.4844 11.0938 11.9033 11.0938 12.4219V12.9316L10.7627 13.2627C10.5781 13.4443 10.5781 13.7432 10.7627 13.9248C10.9443 14.1094 11.2432 14.1094 11.4248 13.9248L11.8936 13.4561C11.9814 13.3682 12.0312 13.248 12.0312 13.125V12.4219C12.0312 11.5488 11.4336 10.8135 10.625 10.6055V9.04688C12.7783 9.57129 14.375 11.4873 14.375 13.8281V14.0625C14.375 14.5811 13.9561 15 13.4375 15H2.1875C1.66982 15 1.25 14.5811 1.25 14.0625V13.8281C1.25 11.5137 2.84756 9.57129 5 9.04688V10.8486C4.32324 11.0508 3.82812 11.6777 3.82812 12.4219C3.82812 13.3271 4.56348 14.0625 5.46875 14.0625C6.37402 14.0625 7.10938 13.3271 7.10938 12.4219C7.10938 11.6777 6.61426 11.0508 5.9375 10.8486V8.91211C6.0166 8.90918 6.09277 8.90625 6.17188 8.90625H9.45312C9.53223 8.90625 9.6084 8.90918 9.6875 8.91211L9.66113 10.6055ZM6.14551 12.4219C6.14551 12.8115 5.8584 13.125 5.44238 13.125C5.0791 13.125 4.73926 12.8115 4.73926 12.4219C4.73926 12.0322 5.0791 11.7188 5.44238 11.7188C5.8584 11.7188 6.14551 12.0322 6.14551 12.4219Z" fill="#505C6B"/>
</g>
<defs>
<clipPath id="clip0_17523_484">
<rect width="15" height="15" fill="white"/>
</clipPath>
</defs>
</svg>
