<svg width="24" height="24" viewBox="0 0 24 24" fill="none" xmlns="http://www.w3.org/2000/svg">
<path d="M15.15 17.25C14.3105 17.9035 13.2077 18.3 12 18.3C10.7922 18.3 9.68948 17.9035 8.84998 17.25" stroke="#12275E" stroke-width="1.5" stroke-linecap="round"/>
<path d="M6.77204 4.23L7.21148 4.83777V4.83777L6.77204 4.23ZM2.18505 15.331L1.44375 15.4449H1.44375L2.18505 15.331ZM21.815 15.331L22.5562 15.4449V15.4449L21.815 15.331ZM22.131 13.2741L21.3897 13.1602V13.1602L22.131 13.2741ZM18.7398 5.32312L19.1792 4.71534L18.7398 5.32312ZM1.86896 13.2741L2.61026 13.1602V13.1602L1.86896 13.2741ZM5.26019 5.32312L4.82075 4.71534V4.71534L5.26019 5.32312ZM22.131 13.2741L21.3897 13.1602L21.0737 15.2171L21.815 15.331L22.5562 15.4449L22.8723 13.388L22.131 13.2741ZM13.1958 22.5V21.75H10.8042V22.5V23.25H13.1958V22.5ZM2.18505 15.331L2.92635 15.2171L2.61026 13.1602L1.86896 13.2741L1.12766 13.388L1.44375 15.4449L2.18505 15.331ZM5.26019 5.32312L5.69964 5.93089L7.21148 4.83777L6.77204 4.23L6.33259 3.62223L4.82075 4.71534L5.26019 5.32312ZM17.228 4.23L16.7885 4.83777L18.3004 5.93089L18.7398 5.32312L19.1792 4.71534L17.6674 3.62223L17.228 4.23ZM6.77204 4.23L7.21148 4.83777C8.48416 3.91759 9.3879 3.26557 10.1524 2.83656C10.8996 2.41728 11.4484 2.25 12 2.25V1.5V0.75C11.0994 0.75 10.2928 1.03772 9.41835 1.52844C8.56121 2.00943 7.57709 2.72241 6.33259 3.62223L6.77204 4.23ZM17.228 4.23L17.6674 3.62223C16.4229 2.72241 15.4388 2.00943 14.5817 1.52844C13.7072 1.03772 12.9006 0.75 12 0.75V1.5V2.25C12.5516 2.25 13.1004 2.41728 13.8476 2.83656C14.6121 3.26557 15.5158 3.91759 16.7885 4.83777L17.228 4.23ZM10.8042 22.5V21.75C8.99265 21.75 7.70159 21.7487 6.70759 21.628C5.73236 21.5095 5.13808 21.2851 4.67915 20.9034L4.19955 21.48L3.71995 22.0566C4.48732 22.6949 5.40259 22.9805 6.52673 23.117C7.63211 23.2513 9.03024 23.25 10.8042 23.25V22.5ZM2.18505 15.331L1.44375 15.4449C1.70343 17.1348 1.90773 18.4739 2.20912 19.514C2.51706 20.5767 2.9495 21.4158 3.71995 22.0566L4.19955 21.48L4.67915 20.9034C4.22329 20.5243 3.91121 19.9985 3.64985 19.0965C3.38193 18.172 3.19213 16.9466 2.92635 15.2171L2.18505 15.331ZM21.815 15.331L21.0737 15.2171C20.8079 16.9466 20.6181 18.172 20.3501 19.0965C20.0888 19.9985 19.7767 20.5243 19.3209 20.9034L19.8004 21.48L20.28 22.0566C21.0505 21.4158 21.4829 20.5767 21.7909 19.514C22.0923 18.4739 22.2966 17.1348 22.5562 15.4449L21.815 15.331ZM13.1958 22.5V23.25C14.9698 23.25 16.3679 23.2513 17.4733 23.117C18.5974 22.9805 19.5127 22.6949 20.28 22.0566L19.8004 21.48L19.3209 20.9034C18.8619 21.2851 18.2676 21.5095 17.2924 21.628C16.2984 21.7487 15.0073 21.75 13.1958 21.75V22.5ZM22.131 13.2741L22.8723 13.388C23.0553 12.1973 23.2022 11.2479 23.2402 10.4632C23.279 9.66046 23.2088 8.96761 22.9209 8.2926L22.231 8.58684L21.5412 8.88109C21.7093 9.27525 21.7744 9.72001 21.7419 10.3906C21.7086 11.0792 21.5774 11.9388 21.3897 13.1602L22.131 13.2741ZM18.7398 5.32312L18.3004 5.93089C19.3242 6.67116 20.0471 7.1949 20.5754 7.66369C21.0918 8.12186 21.3724 8.48551 21.5412 8.88109L22.231 8.58684L22.9209 8.2926C22.6336 7.61901 22.1803 7.08231 21.571 6.54167C20.9736 6.01164 20.1789 5.43811 19.1792 4.71534L18.7398 5.32312ZM1.86896 13.2741L2.61026 13.1602C2.42257 11.9388 2.29142 11.0792 2.25808 10.3906C2.22561 9.72001 2.29073 9.27525 2.45884 8.88109L1.76897 8.58684L1.0791 8.2926C0.791201 8.96761 0.720973 9.66046 0.759836 10.4632C0.79783 11.2479 0.944685 12.1974 1.12766 13.388L1.86896 13.2741ZM5.26019 5.32312L4.82075 4.71534C3.82112 5.43811 3.02641 6.01164 2.42903 6.54167C1.81969 7.08231 1.3664 7.61901 1.0791 8.2926L1.76897 8.58684L2.45884 8.88109C2.62756 8.48551 2.90816 8.12186 3.42455 7.66369C3.95291 7.1949 4.6758 6.67116 5.69964 5.93089L5.26019 5.32312Z" fill="#12275E"/>
</svg>
