<svg width="21" height="20" viewBox="0 0 21 20" fill="none" xmlns="http://www.w3.org/2000/svg">
<path d="M19.3264 3.69873H1.67376C1.2326 3.69873 0.875 3.35816 0.875 2.93801V1.59408C0.875 1.17393 1.2326 0.833357 1.67376 0.833357H19.3264C19.7675 0.833357 20.1251 1.17393 20.1251 1.59408V2.93801C20.1251 3.35816 19.7675 3.69873 19.3264 3.69873Z" stroke="black" stroke-width="1.5" stroke-miterlimit="10" stroke-linecap="round" stroke-linejoin="round"/>
<path d="M16.4209 19.1667H4.57928C4.13812 19.1667 3.78052 18.8261 3.78052 18.406V7.95194C3.78052 7.53179 4.13812 7.19121 4.57928 7.19121H16.4209C16.8621 7.19121 17.2197 7.53179 17.2197 7.95194V18.406C17.2197 18.8261 16.8621 19.1667 16.4209 19.1667Z" stroke="black" stroke-width="1.5" stroke-miterlimit="10" stroke-linecap="round" stroke-linejoin="round"/>
<path d="M8.09375 3.69858V7.0965" stroke="black" stroke-width="1.5" stroke-miterlimit="10" stroke-linecap="round" stroke-linejoin="round"/>
<path d="M12.9064 3.69858V7.0965" stroke="black" stroke-width="1.5" stroke-miterlimit="10" stroke-linecap="round" stroke-linejoin="round"/>
<path d="M13.6066 11.7739H11.9752V10.2203H9.02474V11.7739H7.39343V14.5839H9.02474V16.1376H11.9752V14.5839H13.6066V11.7739Z" stroke="black" stroke-width="1.5" stroke-miterlimit="10" stroke-linecap="round" stroke-linejoin="round"/>
</svg>
