<svg width="24" height="24" viewBox="0 0 24 24" fill="none" xmlns="http://www.w3.org/2000/svg">
<path fill-rule="evenodd" clip-rule="evenodd" d="M8.65119 5.59523C6.95581 5.59523 5.58142 7.00234 5.58142 8.73809C5.58142 10.4739 6.95581 11.8809 8.65119 11.8809C10.3466 11.8809 11.721 10.4739 11.721 8.73809C11.721 7.00234 10.3466 5.59523 8.65119 5.59523ZM7.25584 8.73809C7.25584 7.94912 7.88057 7.30952 8.65119 7.30952C9.42182 7.30952 10.0465 7.94912 10.0465 8.73809C10.0465 9.52707 9.42182 10.1667 8.65119 10.1667C7.88057 10.1667 7.25584 9.52707 7.25584 8.73809Z" fill="white"/>
<path fill-rule="evenodd" clip-rule="evenodd" d="M8.65089 12.4524C7.31609 12.4524 6.06627 12.7275 5.11916 13.2124C4.22214 13.6716 3.34857 14.4645 3.34857 15.5952L3.34842 15.6667C3.34671 16.2499 3.34383 17.232 4.25301 17.9059C4.67491 18.2184 5.23162 18.4179 5.92124 18.5449C6.61725 18.6732 7.50917 18.7381 8.65089 18.7381C9.79262 18.7381 10.6845 18.6732 11.3805 18.5449C12.0702 18.4179 12.6269 18.2184 13.0488 17.9059C13.9579 17.232 13.9551 16.2499 13.9533 15.6667L13.9532 15.5952C13.9532 14.4645 13.0796 13.6716 12.1826 13.2124C11.2355 12.7275 9.98574 12.4524 8.65089 12.4524ZM5.02298 15.5952C5.02298 15.4636 5.14896 15.1137 5.86799 14.7456C6.53694 14.4032 7.51968 14.1667 8.65089 14.1667C9.78213 14.1667 10.7648 14.4032 11.4338 14.7456C12.1528 15.1137 12.2788 15.4636 12.2788 15.5952C12.2788 16.2861 12.2358 16.392 12.0669 16.5172C11.9307 16.6181 11.6502 16.7534 11.084 16.8577C10.5242 16.9608 9.74173 17.0238 8.65089 17.0238C7.56005 17.0238 6.77755 16.9608 6.21775 16.8577C5.65157 16.7534 5.37106 16.6181 5.23482 16.5172C5.06595 16.392 5.02298 16.2861 5.02298 15.5952Z" fill="white"/>
<path d="M19.8139 13.0238C20.2763 13.0238 20.6511 12.64 20.6511 12.1667C20.6511 11.6933 20.2763 11.3095 19.8139 11.3095H15.3488C14.8864 11.3095 14.5116 11.6933 14.5116 12.1667C14.5116 12.64 14.8864 13.0238 15.3488 13.0238H19.8139Z" fill="white"/>
<path d="M20.6512 8.73809C20.6512 9.21149 20.2764 9.59524 19.814 9.59524H14.2326C13.7702 9.59524 13.3954 9.21149 13.3954 8.73809C13.3954 8.26471 13.7702 7.88095 14.2326 7.88095H19.814C20.2764 7.88095 20.6512 8.26471 20.6512 8.73809Z" fill="white"/>
<path d="M19.814 16.4524C20.2763 16.4524 20.6512 16.0686 20.6512 15.5952C20.6512 15.1219 20.2763 14.7381 19.814 14.7381H16.4651C16.0028 14.7381 15.6279 15.1219 15.6279 15.5952C15.6279 16.0686 16.0028 16.4524 16.4651 16.4524H19.814Z" fill="white"/>
<path fill-rule="evenodd" clip-rule="evenodd" d="M9.70446 2.16666H14.2955C16.347 2.16663 17.9719 2.16662 19.2435 2.34167C20.5523 2.52181 21.6116 2.90138 22.447 3.75665C23.2823 4.61193 23.6531 5.69644 23.8291 7.03635C24 8.33829 24 10.0019 24 12.1021V12.2311C24 14.3315 24 15.995 23.8291 17.2969C23.6531 18.6368 23.2823 19.7214 22.447 20.5767C21.6116 21.4319 20.5523 21.8115 19.2435 21.9917C17.9719 22.1667 16.347 22.1667 14.2956 22.1667H9.70447C7.65304 22.1667 6.02811 22.1667 4.75644 21.9917C3.4477 21.8115 2.3884 21.4319 1.55301 20.5767C0.717634 19.7214 0.346895 18.6368 0.170947 17.2969C-3.30515e-05 15.995 -2.18197e-05 14.3315 5.059e-07 12.2311V12.1022C-2.18197e-05 10.0019 -3.30515e-05 8.3383 0.170947 7.03635C0.346895 5.69644 0.717634 4.61193 1.55301 3.75665C2.3884 2.90138 3.4477 2.52181 4.75644 2.34167C6.02812 2.16662 7.65302 2.16663 9.70446 2.16666ZM4.97955 4.04067C3.85648 4.19526 3.20943 4.48516 2.73701 4.96883C2.26458 5.4525 1.98143 6.11495 1.83043 7.26477C1.67619 8.43924 1.67442 9.98746 1.67442 12.1667C1.67442 14.3459 1.67619 15.8941 1.83043 17.0686C1.98143 18.2183 2.26458 18.8808 2.73701 19.3645C3.20943 19.8481 3.85648 20.1381 4.97955 20.2926C6.12671 20.4505 7.6389 20.4524 9.76744 20.4524H14.2326C16.3611 20.4524 17.8733 20.4505 19.0205 20.2926C20.1435 20.1381 20.7906 19.8481 21.263 19.3645C21.7354 18.8808 22.0186 18.2183 22.1695 17.0686C22.3238 15.8941 22.3256 14.3459 22.3256 12.1667C22.3256 9.98746 22.3238 8.43924 22.1695 7.26477C22.0186 6.11495 21.7354 5.4525 21.263 4.96883C20.7906 4.48516 20.1435 4.19526 19.0205 4.04067C17.8733 3.88276 16.3611 3.88094 14.2326 3.88094H9.76744C7.6389 3.88094 6.12671 3.88276 4.97955 4.04067Z" fill="white"/>
</svg>
