<svg width="17" height="15" viewBox="0 0 17 15" fill="none" xmlns="http://www.w3.org/2000/svg">
<path d="M16.9871 7.9961L15.7728 2.06603C15.5383 0.772265 14.6352 0 13.3571 0H3.64286C3.00536 0 2.46652 0.183203 2.04532 0.544531C1.62411 0.905858 1.34824 1.41603 1.22643 2.06368L0.0121458 7.9961C0.0039418 8.03852 -0.000126043 8.08172 2.97487e-06 8.12501V12.5C2.97487e-06 13.163 0.255868 13.7989 0.711313 14.2678C1.16676 14.7366 1.78448 15 2.42857 15H14.5714C15.2155 15 15.8333 14.7366 16.2887 14.2678C16.7441 13.7989 17 13.163 17 12.5V8.12501C16.9999 8.08168 16.9956 8.03852 16.9871 7.9961ZM2.41567 2.31642C2.41567 2.31251 2.41567 2.30899 2.41567 2.30548C2.55038 1.58556 2.93971 1.25078 3.64096 1.25078H13.3571C14.0633 1.25078 14.4527 1.58478 14.5817 2.30196C14.5817 2.30704 14.5836 2.31212 14.5843 2.3172L15.6062 7.31251C15.6109 7.33524 15.6105 7.3588 15.6052 7.38137C15.5999 7.40399 15.5897 7.42508 15.5754 7.44313C15.5612 7.46114 15.5432 7.47571 15.5228 7.48567C15.5024 7.49563 15.4801 7.50079 15.4575 7.50079H10.9286C10.7685 7.49993 10.6146 7.56458 10.5008 7.68044C10.3869 7.7963 10.3225 7.95395 10.3214 8.11875C10.3214 8.61602 10.1295 9.09293 9.78794 9.44457C9.44635 9.79622 8.98306 9.99375 8.5 9.99375C8.01694 9.99375 7.55365 9.79622 7.21206 9.44457C6.87047 9.09293 6.67857 8.61602 6.67857 8.11875C6.67819 8.03708 6.66214 7.9563 6.63144 7.88098C6.60071 7.80571 6.55585 7.73739 6.4995 7.67993C6.44311 7.62247 6.37629 7.577 6.30286 7.54614C6.2294 7.51528 6.15077 7.49958 6.07143 7.50001H1.54253C1.51994 7.50001 1.49762 7.49485 1.47722 7.48489C1.45682 7.47493 1.43883 7.46036 1.42458 7.44235C1.41032 7.4243 1.40017 7.40321 1.39483 7.38059C1.38951 7.35801 1.38914 7.33446 1.39378 7.31172L2.41567 2.31642Z" fill="#12275E"/>
<path d="M12.75 3.75001H4.25003C4.08902 3.75001 3.93458 3.68415 3.8207 3.56693C3.70686 3.44974 3.64288 3.29076 3.64288 3.12501C3.64288 2.95923 3.70686 2.80029 3.8207 2.68306C3.93458 2.56584 4.08902 2.50002 4.25003 2.50002H12.75C12.9111 2.50002 13.0655 2.56584 13.1794 2.68306C13.2932 2.80029 13.3572 2.95923 13.3572 3.12501C13.3572 3.29076 13.2932 3.44974 13.1794 3.56693C13.0655 3.68415 12.9111 3.75001 12.75 3.75001Z" fill="#12275E"/>
<path d="M13.3571 6.25001H3.64285C3.48184 6.25001 3.3274 6.18415 3.21352 6.06693C3.09968 5.94974 3.03571 5.79076 3.03571 5.62501C3.03571 5.45923 3.09968 5.30029 3.21352 5.18306C3.3274 5.06584 3.48184 5.00002 3.64285 5.00002H13.3571C13.5182 5.00002 13.6726 5.06584 13.7865 5.18306C13.9003 5.30029 13.9643 5.45923 13.9643 5.62501C13.9643 5.79076 13.9003 5.94974 13.7865 6.06693C13.6726 6.18415 13.5182 6.25001 13.3571 6.25001Z" fill="#12275E"/>
</svg>
