<svg width="128" height="25" viewBox="0 0 128 25" fill="none" xmlns="http://www.w3.org/2000/svg">
<path d="M76.9551 5.26207H79.878V8.6391H76.9551V12.7751C76.9551 13.7295 77.7186 14.502 78.6594 14.502H80.3637V17.9864H77.9953C75.4664 17.9864 73.4176 16.0268 73.4176 13.4652V8.63797H70.8222V5.26094H73.4176V1.2277H76.9551V5.26207Z" fill="#ECEDE5"/>
<path d="M41.8294 5.26207H38.1948V17.9875H41.8294V5.26207Z" fill="#ECEDE5"/>
<path d="M40.0121 0C41.1642 0 42.0993 0.946473 42.0993 2.11432C42.0993 3.28216 41.1653 4.22863 40.0121 4.22863C38.8601 4.22863 37.9249 3.28216 37.9249 2.11432C37.9249 0.946473 38.859 0 40.0121 0Z" fill="#ECEDE5"/>
<path d="M61.9673 6.61062C62.776 5.62913 63.9755 5.09491 65.4031 5.09491C68.1883 5.09491 69.9864 7.02964 69.9864 10.0238V17.9864H66.3507V10.7432C66.3507 9.09765 65.7069 8.26412 64.4374 8.26412C62.9285 8.26412 61.9922 9.4794 61.9922 11.4379V17.9875H58.3565V1.2277H61.9673V6.61062Z" fill="#ECEDE5"/>
<path d="M87.146 12.4171L89.6376 5.2632H92.9626L95.479 12.4431L97.7492 5.2632H101.78L97.1179 17.9875H93.7781L93.7318 17.8576L91.299 11.2278L88.8198 17.9875H85.4801L85.4338 17.8587L82.094 8.64023L80.8821 5.2632H84.8736L87.146 12.4171Z" fill="#ECEDE5"/>
<path d="M119.759 12.6181C119.759 14.144 120.539 15.0193 121.9 15.0193C123.409 15.0193 124.348 13.8232 124.348 11.8975V5.26207H127.982V17.7063C127.982 19.615 127.268 21.3498 125.974 22.59C124.777 23.7364 123.144 24.3948 121.495 24.3948C120.067 24.3948 118.739 23.995 117.653 23.2383C116.609 22.5087 115.4 21.2606 115.043 19.2593H118.716C119.163 20.5694 120.175 21.1996 121.622 21.1996C123.231 21.1996 124.398 19.8387 124.398 17.9638V16.788C123.638 17.6701 122.421 18.2371 121.216 18.2371C119.861 18.2371 118.611 17.7808 117.695 16.9529C116.667 16.0245 116.124 14.6929 116.124 13.1038V5.2632H119.76V12.6193L119.759 12.6181Z" fill="#ECEDE5"/>
<path d="M33.2163 10.9748C35.4345 9.94137 36.2319 7.89933 36.2319 6.30456V6.3023C36.2319 4.89502 35.7202 3.61762 34.7896 2.70503C33.7991 1.73371 32.4065 1.21981 30.7597 1.21981H23.8001V17.9886H27.4347V11.8501H29.5761L32.9226 17.9886H37.1964L33.2174 10.9759L33.2163 10.9748ZM30.2266 8.54876H27.4358V4.51665H30.3543C31.6192 4.51665 32.4697 5.30613 32.4697 6.48075C32.4697 7.65537 31.5266 8.54876 30.2266 8.54876Z" fill="#ECEDE5"/>
<path d="M110.876 5.26093V6.48073C110.108 5.56927 108.949 5.09039 107.49 5.09039C104.303 5.09039 101.078 7.37525 101.078 11.7428C101.078 16.1104 104.243 18.2405 107.186 18.2405C108.221 18.2405 109.203 17.9773 110.026 17.4804C110.583 17.1438 111.053 16.7101 111.41 16.2086V17.9875H114.488V5.26093H110.876ZM107.711 15.0204H107.642C106.842 15.0204 106.107 14.7065 105.569 14.1361C104.992 13.5217 104.687 12.6678 104.687 11.6671C104.687 9.43083 106.212 8.26186 107.718 8.26186C109.459 8.26186 110.773 9.70303 110.773 11.6163C110.773 13.7939 109.209 14.9843 107.711 15.0204Z" fill="#ECEDE5"/>
<path d="M53.108 5.26093V6.48073C52.34 5.56927 51.1812 5.09039 49.7219 5.09039C46.5358 5.09039 43.3101 7.37525 43.3101 11.7428C43.3101 16.1104 46.4759 18.2405 49.4181 18.2405C50.4538 18.2405 51.4353 17.9773 52.2587 17.4804C52.5851 17.2838 52.8799 17.0534 53.1408 16.7959V17.9694C53.1385 19.842 51.9718 21.2008 50.3646 21.2008C48.9178 21.2008 47.9058 20.5705 47.4585 19.2604H43.7856C44.1425 21.2617 45.351 22.5109 46.3957 23.2394C47.4811 23.9961 48.8082 24.3959 50.237 24.3959C51.8859 24.3959 53.5191 23.7386 54.7163 22.5911C55.9474 21.412 56.6533 19.7856 56.72 17.9875V5.26093H53.108ZM49.9422 15.0204H49.8733C49.0736 15.0204 48.3384 14.7065 47.8008 14.1361C47.2236 13.5217 46.9187 12.6678 46.9187 11.6671C46.9187 9.43083 48.4434 8.26186 49.949 8.26186C51.6906 8.26186 53.0041 9.70303 53.0041 11.6163C53.0041 13.7939 51.4398 14.9843 49.9422 15.0204Z" fill="#ECEDE5"/>
<path d="M10.2316 6.46479V1.20002H6.59988V7.75701H0V11.3887H5.30767C5.96562 9.00295 7.84695 7.12162 10.2327 6.46366L10.2316 6.46479Z" fill="#ECEDE5"/>
<path d="M12.6433 13.6673L18.3539 9.60449L12.6433 5.47956V7.75815H12.1039C9.06914 7.75815 6.59983 10.2275 6.59983 13.2622V17.948H10.2316V13.2622C10.2316 12.2295 11.0712 11.3899 12.1039 11.3899H12.6433V13.6685V13.6673Z" fill="#ECEDE5"/>
</svg>
