<svg width="24" height="24" viewBox="0 0 24 24" fill="none" xmlns="http://www.w3.org/2000/svg">
<path d="M17.4287 17.7143C16.2462 17.7143 15.2859 18.6743 15.2859 19.8571C15.2859 21.0397 16.2462 22 17.4287 22C18.6111 22 19.5714 21.0397 19.5714 19.8571C19.5714 18.6743 18.6111 17.7143 17.4287 17.7143Z" stroke="black" stroke-width="1.5" stroke-miterlimit="10" stroke-linecap="round" stroke-linejoin="round"/>
<path d="M6.00226 17.7143C4.81983 17.7143 3.8595 18.6743 3.8595 19.8571C3.8595 21.0397 4.81983 22 6.00226 22C7.18469 22 8.14502 21.0397 8.14502 19.8571C8.14502 18.6743 7.18469 17.7143 6.00226 17.7143Z" stroke="black" stroke-width="1.5" stroke-miterlimit="10" stroke-linecap="round" stroke-linejoin="round"/>
<path d="M15.2859 19.8571V8.42858H18.1429C18.6004 8.42858 19.0389 8.61032 19.3621 8.93353C20.0418 9.6132 21.2438 10.8153 21.9234 11.495C22.2467 11.8182 22.4284 12.2568 22.4284 12.7142V18.4285C22.4284 18.8075 22.2781 19.1707 22.0099 19.4385C21.742 19.7064 21.3788 19.8571 20.9999 19.8571H19.5714C19.5714 18.6736 18.6121 17.7143 17.4287 17.7143C16.2451 17.7143 15.2859 18.6736 15.2859 19.8571Z" stroke="black" stroke-width="1.5" stroke-miterlimit="10" stroke-linecap="round" stroke-linejoin="round"/>
<path d="M3.85703 19.8571H2.42854C1.63963 19.8571 1 19.2175 1 18.4285V14.8571H15.2851V19.8571H8.14255C8.14255 18.6736 7.18334 17.7143 5.99979 17.7143C4.81629 17.7143 3.85703 18.6736 3.85703 19.8571Z" stroke="black" stroke-width="1.5" stroke-miterlimit="10" stroke-linecap="round" stroke-linejoin="round"/>
<path d="M15.2851 3.42858C15.2851 2.63964 14.6454 1.99998 13.8566 1.99998H2.42849C1.63958 1.99998 1 2.63964 1 3.42858V14.8571H15.2851V3.42858Z" stroke="black" stroke-width="1.5" stroke-miterlimit="10" stroke-linecap="round" stroke-linejoin="round"/>
<path d="M18.1395 8.42855V14.8571H22.4251V12.7142C22.4251 12.2567 22.2433 11.8182 21.9201 11.495C21.2404 10.8153 20.0384 9.61317 19.3588 8.9335C19.0355 8.61034 18.597 8.42855 18.1395 8.42855Z" stroke="black" stroke-width="1.5" stroke-miterlimit="10" stroke-linecap="round" stroke-linejoin="round"/>
</svg>
