<svg width="25" height="24" viewBox="0 0 25 24" fill="none" xmlns="http://www.w3.org/2000/svg">
<path d="M2.66663 6.7191C2.66663 4.11279 4.77945 1.99996 7.38576 1.99996C9.99207 1.99996 12.1049 4.11279 12.1049 6.7191C12.1049 9.32541 9.99207 11.4382 7.38576 11.4382C4.77945 11.4382 2.66663 9.32541 2.66663 6.7191Z" stroke="#505C6B" stroke-width="1.5" stroke-miterlimit="10" stroke-linecap="round" stroke-linejoin="round"/>
<path d="M21.4625 9.01677C23.068 10.6223 23.068 13.2255 21.4625 14.8311L15.4977 20.7958C13.8921 22.4014 11.289 22.4014 9.68342 20.7958C8.07786 19.1903 8.07786 16.5871 9.68342 14.9815L15.6482 9.01677C17.2538 7.41121 19.8569 7.41121 21.4625 9.01677Z" stroke="#505C6B" stroke-width="1.5" stroke-miterlimit="10" stroke-linecap="round" stroke-linejoin="round"/>
<path d="M18.4885 17.8049L12.6742 11.9907" stroke="#505C6B" stroke-width="1.5" stroke-miterlimit="10" stroke-linecap="round" stroke-linejoin="round"/>
<path d="M8.80889 5.22615L5.8927 8.14233" stroke="#505C6B" stroke-width="1.5" stroke-miterlimit="10" stroke-linecap="round" stroke-linejoin="round"/>
</svg>
