<svg width="20" height="20" viewBox="0 0 20 20" fill="none" xmlns="http://www.w3.org/2000/svg">
<g clip-path="url(#clip0_17523_400)">
<path d="M11.6667 1.25V1.94844C14.4987 2.39805 16.6667 4.85156 16.6667 7.8125V9.11719C16.6667 10.8906 17.2721 12.6133 18.3776 14L18.9596 14.7266C19.1862 15.0078 19.2292 15.3945 19.0729 15.7187C18.9167 16.043 18.5885 16.25 18.2292 16.25H2.60416C2.24362 16.25 1.9153 16.043 1.7592 15.7187C1.60307 15.3945 1.64698 15.0078 1.87213 14.7266L2.45455 14C3.56276 12.6133 4.16666 10.8906 4.16666 9.11719V7.8125C4.16666 4.85156 6.33463 2.39805 9.16666 1.94844V1.25C9.16666 0.559766 9.72526 0 10.4167 0C11.1081 0 11.6667 0.559766 11.6667 1.25ZM10.1042 3.75C7.86198 3.75 6.04166 5.57031 6.04166 7.8125V9.11719C6.04166 10.9883 5.49948 12.8125 4.49127 14.375H16.3424C15.3346 12.8125 14.7917 10.9883 14.7917 9.11719V7.8125C14.7917 5.57031 12.9714 3.75 10.7292 3.75H10.1042ZM12.9167 17.5C12.9167 18.1289 12.6549 18.8008 12.1862 19.2695C11.7174 19.7383 11.0456 20 10.4167 20C9.7526 20 9.11588 19.7383 8.64713 19.2695C8.17838 18.8008 7.91666 18.1289 7.91666 17.5H12.9167Z" fill="#12275E"/>
</g>
<defs>
<clipPath id="clip0_17523_400">
<rect width="17.5" height="20" fill="white" transform="translate(1.66666)"/>
</clipPath>
</defs>
</svg>
