<svg width="20" height="20" viewBox="0 0 20 20" fill="none" xmlns="http://www.w3.org/2000/svg">
<path d="M17.7083 9.14611C17.2866 9.14611 16.9445 8.80399 16.9445 8.38227C16.9445 6.23957 16.1103 4.22597 14.5955 2.71031C14.2968 2.41169 14.2968 1.92899 14.5955 1.63022C14.8941 1.33159 15.3769 1.33159 15.6756 1.63022C17.4792 3.43373 18.4722 5.8317 18.4722 8.38227C18.4722 8.80399 18.13 9.14611 17.7083 9.14611Z" fill="#12275E"/>
<path d="M2.4305 9.14611C2.00892 9.14611 1.66666 8.80399 1.66666 8.38227C1.66666 5.8317 2.65975 3.43373 4.46327 1.63022C4.7619 1.33159 5.24474 1.33159 5.54337 1.63022C5.84214 1.92899 5.84214 2.41169 5.54337 2.71031C4.02855 4.22513 3.19449 6.23957 3.19449 8.38227C3.19449 8.80399 2.85222 9.14611 2.4305 9.14611Z" fill="#12275E"/>
<path d="M17.234 13.7531C16.079 12.7768 15.4167 11.3498 15.4167 9.83804V7.70834C15.4167 5.02028 13.4199 2.79505 10.8333 2.42229V1.59719C10.8333 1.17477 10.4911 0.833344 10.0695 0.833344C9.64777 0.833344 9.3055 1.17477 9.3055 1.59719V2.42229C6.71828 2.79505 4.72216 5.02028 4.72216 7.70834V9.83804C4.72216 11.3498 4.05986 12.7768 2.89808 13.7591C2.60085 14.0135 2.43048 14.3832 2.43048 14.7743C2.43048 15.5115 3.03012 16.1112 3.76738 16.1112H16.3716C17.1087 16.1112 17.7084 15.5115 17.7084 14.7743C17.7084 14.3832 17.538 14.0135 17.234 13.7531Z" fill="#12275E"/>
<path d="M10.0695 19.1667C11.4529 19.1667 12.6102 18.1804 12.8761 16.875H7.263C7.52876 18.1804 8.68607 19.1667 10.0695 19.1667Z" fill="#12275E"/>
</svg>
