<svg width="20" height="20" viewBox="0 0 20 20" fill="none" xmlns="http://www.w3.org/2000/svg">
<path fill-rule="evenodd" clip-rule="evenodd" d="M8.23006 2.51323C8.64556 1.99831 9.28406 1.66663 9.99999 1.66663C10.7159 1.66663 11.3544 1.99831 11.7699 2.51323C11.8189 2.57431 11.8637 2.61692 11.8999 2.64533C11.9361 2.67232 11.9567 2.67942 11.9631 2.68084C11.9681 2.68226 11.9887 2.68652 12.0313 2.68084C12.076 2.67516 12.1357 2.66025 12.2103 2.63113C12.8275 2.39319 13.547 2.42516 14.167 2.78312C14.7878 3.1418 15.1756 3.75047 15.2772 4.40603C15.2892 4.48344 15.3056 4.54239 15.3226 4.58359C15.3397 4.62407 15.3532 4.63898 15.3574 4.64324C15.361 4.6468 15.3759 4.66029 15.4164 4.67734C15.4576 4.69438 15.5165 4.71143 15.5939 4.72279C16.2495 4.82436 16.8582 5.21215 17.2168 5.83291C17.5748 6.45296 17.6075 7.17243 17.3688 7.78968C17.3397 7.86425 17.3248 7.92391 17.3191 7.96866C17.3134 8.01127 17.3177 8.03187 17.3191 8.03684C17.3205 8.04323 17.3276 8.06383 17.3546 8.10006C17.383 8.13628 17.4256 8.18102 17.4867 8.23003C18.0016 8.64553 18.3333 9.28403 18.3333 9.99996C18.3333 10.7159 18.0016 11.3544 17.4867 11.7699C17.4256 11.8189 17.383 11.8636 17.3546 11.8999C17.3276 11.9361 17.3205 11.9567 17.3191 11.9631C17.3177 11.968 17.3134 11.9886 17.3191 12.0313C17.3248 12.076 17.3397 12.1357 17.3688 12.2102C17.6075 12.8274 17.5748 13.5469 17.2168 14.167C16.8582 14.7878 16.2495 15.1756 15.5939 15.2771C15.5165 15.2892 15.4576 15.3055 15.4164 15.3226C15.3759 15.3396 15.361 15.3531 15.3574 15.3574C15.3532 15.3609 15.3397 15.3758 15.3226 15.4163C15.3056 15.4575 15.2892 15.5165 15.2772 15.5939C15.1756 16.2495 14.7885 16.8581 14.167 17.2168C13.547 17.5748 12.8275 17.6074 12.2103 17.3688C12.1357 17.3397 12.076 17.3248 12.0313 17.3191C11.9887 17.3134 11.9681 17.3177 11.9631 17.3191C11.9567 17.3205 11.9361 17.3276 11.8999 17.3546C11.8637 17.383 11.8189 17.4256 11.7699 17.4867C11.3544 18.0016 10.7159 18.3333 9.99999 18.3333C9.28406 18.3333 8.64556 18.0016 8.23006 17.4867C8.18105 17.4256 8.13631 17.383 8.10008 17.3546C8.06386 17.3276 8.04327 17.3205 8.03687 17.3191C8.0319 17.3177 8.01131 17.3134 7.96869 17.3191C7.92395 17.3248 7.86428 17.3397 7.78971 17.3688C7.17251 17.6074 6.45302 17.5748 5.83294 17.2168C5.21147 16.8581 4.82439 16.2495 4.72282 15.5939C4.71146 15.5165 4.69441 15.4575 4.67737 15.4163C4.66032 15.3758 4.64683 15.3609 4.64328 15.3574C4.63901 15.3531 4.6241 15.3396 4.58362 15.3226C4.54242 15.3055 4.48347 15.2892 4.40606 15.2771C3.7505 15.1756 3.14183 14.7885 2.78315 14.167C2.42518 13.547 2.39323 12.8275 2.63116 12.2102C2.66028 12.1357 2.67519 12.076 2.68087 12.0313C2.68656 11.9886 2.68229 11.9688 2.68087 11.9631C2.67945 11.9567 2.67235 11.9361 2.64536 11.8999C2.61695 11.8636 2.57434 11.8189 2.51326 11.7699C1.99834 11.3544 1.66666 10.7159 1.66666 9.99996C1.66666 9.28403 1.99834 8.64553 2.51326 8.23003C2.57434 8.18102 2.61695 8.13628 2.64536 8.10006C2.67235 8.06383 2.67945 8.04324 2.68087 8.03684C2.68229 8.03187 2.68656 8.01127 2.68087 7.96866C2.67519 7.92391 2.66028 7.86425 2.63116 7.78968C2.39322 7.17248 2.42519 6.45299 2.78315 5.83291C3.14183 5.21215 3.7505 4.82436 4.40606 4.72279C4.48347 4.71143 4.54242 4.69438 4.58362 4.67734C4.6241 4.66029 4.63902 4.6468 4.64328 4.64324C4.64683 4.63898 4.66032 4.62407 4.67737 4.58359C4.69441 4.54239 4.71075 4.48344 4.72282 4.40603C4.82439 3.75047 5.21147 3.1418 5.83294 2.78312C6.45299 2.42515 7.17246 2.3932 7.78971 2.63113C7.86428 2.66025 7.92394 2.67516 7.96869 2.68084C8.01131 2.68652 8.0319 2.68226 8.03687 2.68084C8.04327 2.67942 8.06386 2.67232 8.10008 2.64533C8.13631 2.61692 8.18105 2.57431 8.23006 2.51323ZM13.5662 8.26262C13.8616 7.96716 13.8616 7.48704 13.5662 7.19158C13.27 6.89541 12.7906 6.89541 12.4944 7.19158L8.48506 11.2017L7.50564 10.2215C7.20947 9.92608 6.73006 9.92608 6.43389 10.2215C6.13843 10.5177 6.13843 10.9971 6.43389 11.2933L7.94884 12.8082C8.24501 13.1044 8.72442 13.1044 9.02059 12.8082L13.5662 8.26262Z" fill="#1A642C"/>
</svg>
