<svg width="15" height="15" viewBox="0 0 15 15" fill="none" xmlns="http://www.w3.org/2000/svg">
<path d="M11.7645 6.76503C11.7645 4.00369 9.52634 1.76487 6.76503 1.76472C4.00359 1.76472 1.76472 4.00359 1.76472 6.76503C1.76487 9.52634 4.00369 11.7645 6.76503 11.7645C9.52624 11.7643 11.7643 9.52624 11.7645 6.76503ZM13.5292 6.76503C13.529 10.5009 10.5009 13.529 6.76503 13.5292C3.02906 13.5292 0.000155072 10.501 0 6.76503C0 3.02897 3.02897 0 6.76503 0C10.501 0.000155075 13.5292 3.02906 13.5292 6.76503Z" fill="#5D5D5D"/>
<path d="M10.2953 10.2953C10.6399 9.95072 11.1984 9.95072 11.543 10.2953L14.7416 13.4938C15.0861 13.8384 15.0861 14.397 14.7416 14.7416C14.397 15.0861 13.8384 15.0861 13.4938 14.7416L10.2953 11.543C9.95072 11.1984 9.95072 10.6399 10.2953 10.2953Z" fill="#5D5D5D"/>
</svg>
