<svg width="24" height="24" viewBox="0 0 24 24" fill="none" xmlns="http://www.w3.org/2000/svg">
<path d="M20.0979 15.6788L22.2586 13.0857C22.5676 12.7149 22.5676 12.1763 22.2586 11.8054L20.0979 9.21231" stroke="black" stroke-width="1.5" stroke-miterlimit="10" stroke-linecap="round"/>
<path d="M3.2746 20.8397C2.45342 20.2018 2 19.5038 2 18.772C2 15.7474 9.72296 12.4456 19.2504 12.4456H22.392" stroke="black" stroke-width="1.5" stroke-miterlimit="10" stroke-linecap="round"/>
<path d="M16.5294 7.17303V9.64807M6.1842 7.17303V11.6025M6.1842 18.5706V20.6234C6.1842 21.5757 6.95617 22.3478 7.9084 22.3478H14.8052C15.7574 22.3478 16.5294 21.5757 16.5294 20.6234V16.1913" stroke="black" stroke-width="1.5" stroke-miterlimit="10" stroke-linecap="round" stroke-linejoin="round"/>
<path d="M7.90677 5.44849C7.90677 6.40083 7.13481 7.17289 6.18257 7.17289C5.23034 7.17289 4.45837 6.40083 4.45837 5.44849" stroke="black" stroke-width="1.5" stroke-miterlimit="10" stroke-linecap="round" stroke-linejoin="round"/>
<path d="M11.35 5.44849C11.35 6.40083 10.578 7.17289 9.62581 7.17289C8.67358 7.17289 7.90161 6.40083 7.90161 5.44849" stroke="black" stroke-width="1.5" stroke-miterlimit="10" stroke-linecap="round" stroke-linejoin="round"/>
<path d="M14.8018 5.44849C14.8018 6.40083 14.0298 7.17289 13.0776 7.17289C12.1254 7.17289 11.3534 6.40083 11.3534 5.44849" stroke="black" stroke-width="1.5" stroke-miterlimit="10" stroke-linecap="round" stroke-linejoin="round"/>
<path d="M18.2536 5.44849C18.2536 6.40083 17.4816 7.17289 16.5294 7.17289C15.5771 7.17289 14.8052 6.40083 14.8052 5.44849" stroke="black" stroke-width="1.5" stroke-miterlimit="10" stroke-linecap="round" stroke-linejoin="round"/>
<path d="M4.45837 5.44881V3.72441C4.45837 2.77206 5.23034 2 6.18257 2H16.5278C17.48 2 18.252 2.77206 18.252 3.72441V5.44881" stroke="black" stroke-width="1.5" stroke-miterlimit="10" stroke-linecap="round" stroke-linejoin="round"/>
</svg>
