<svg width="24" height="24" viewBox="0 0 24 24" fill="none" xmlns="http://www.w3.org/2000/svg">
<path fill-rule="evenodd" clip-rule="evenodd" d="M11.9535 1C9.26912 1 7.09302 3.17611 7.09302 5.86046C7.09302 8.54482 9.26912 10.7209 11.9535 10.7209C14.6379 10.7209 16.8139 8.54482 16.8139 5.86046C16.8139 3.17611 14.6379 1 11.9535 1ZM8.6279 5.86046C8.6279 4.02379 10.1168 2.53488 11.9535 2.53488C13.7901 2.53488 15.2791 4.02379 15.2791 5.86046C15.2791 7.69714 13.7901 9.18604 11.9535 9.18604C10.1168 9.18604 8.6279 7.69714 8.6279 5.86046Z" fill="white"/>
<path fill-rule="evenodd" clip-rule="evenodd" d="M11.9536 11.5C9.58627 11.5 7.40518 12.0379 5.78896 12.9466C4.19682 13.8419 3.00013 15.1988 3.00013 16.87L3.00007 16.9743C2.99891 18.1627 2.99746 19.6542 4.30623 20.7195C4.95033 21.2438 5.85141 21.6167 7.06881 21.8631C8.28961 22.11 9.88074 22.24 11.9536 22.24C14.0265 22.24 15.6177 22.11 16.8384 21.8631C18.0558 21.6167 18.9569 21.2438 19.601 20.7195C20.9098 19.6542 20.9083 18.1627 20.9072 16.9743L20.9071 16.87C20.9071 15.1988 19.7104 13.8419 18.1183 12.9466C16.5021 12.0379 14.321 11.5 11.9536 11.5ZM4.53501 16.87C4.53501 15.9992 5.17085 15.0545 6.54146 14.2839C7.88802 13.5268 9.79995 13.0343 11.9536 13.0343C14.1073 13.0343 16.0192 13.5268 17.3658 14.2839C18.7364 15.0545 19.3722 15.9992 19.3722 16.87C19.3722 18.2077 19.331 18.9607 18.6318 19.5298C18.2527 19.8385 17.6189 20.1398 16.5339 20.3593C15.4524 20.5781 13.9737 20.7057 11.9536 20.7057C9.9335 20.7057 8.45484 20.5781 7.37331 20.3593C6.28839 20.1398 5.65458 19.8385 5.27543 19.5298C4.57627 18.9607 4.53501 18.2077 4.53501 16.87Z" fill="white"/>
</svg>
